<mxfile host="app.diagrams.net" modified="2023-04-09T10:43:27.794Z" agent="Mozilla/5.0 (Windows NT 10.0; Win64; x64) AppleWebKit/537.36 (KHTML, like Gecko) Chrome/111.0.0.0 Safari/537.36" etag="0QRmzgOSy5NwM2oQLoiB" version="21.1.5" type="device">
  <diagram id="C5RBs43oDa-KdzZeNtuy" name="Page-1">
    <mxGraphModel dx="1434" dy="774" grid="1" gridSize="10" guides="1" tooltips="1" connect="1" arrows="1" fold="1" page="1" pageScale="1" pageWidth="827" pageHeight="1169" math="0" shadow="0">
      <root>
        <mxCell id="WIyWlLk6GJQsqaUBKTNV-0" />
        <mxCell id="WIyWlLk6GJQsqaUBKTNV-1" parent="WIyWlLk6GJQsqaUBKTNV-0" />
        <mxCell id="-5JDeVEjNkhx5ZQaPaJK-1" value="" style="edgeStyle=orthogonalEdgeStyle;rounded=0;orthogonalLoop=1;jettySize=auto;html=1;labelBackgroundColor=none;strokeColor=#788AA3;fontColor=default;" edge="1" parent="WIyWlLk6GJQsqaUBKTNV-1" source="WIyWlLk6GJQsqaUBKTNV-3" target="-5JDeVEjNkhx5ZQaPaJK-0">
          <mxGeometry relative="1" as="geometry" />
        </mxCell>
        <mxCell id="WIyWlLk6GJQsqaUBKTNV-3" value="Управління скейтом" style="rounded=1;whiteSpace=wrap;html=1;fontSize=12;glass=0;strokeWidth=1;shadow=0;labelBackgroundColor=none;fillColor=#B2C9AB;strokeColor=#788AA3;fontColor=#46495D;" parent="WIyWlLk6GJQsqaUBKTNV-1" vertex="1">
          <mxGeometry x="340" y="20" width="120" height="40" as="geometry" />
        </mxCell>
        <mxCell id="-5JDeVEjNkhx5ZQaPaJK-3" value="" style="edgeStyle=orthogonalEdgeStyle;rounded=0;orthogonalLoop=1;jettySize=auto;html=1;labelBackgroundColor=none;strokeColor=#788AA3;fontColor=default;" edge="1" parent="WIyWlLk6GJQsqaUBKTNV-1" source="-5JDeVEjNkhx5ZQaPaJK-0" target="-5JDeVEjNkhx5ZQaPaJK-2">
          <mxGeometry relative="1" as="geometry" />
        </mxCell>
        <mxCell id="-5JDeVEjNkhx5ZQaPaJK-0" value="Стати на скейт однією ногою" style="rounded=1;whiteSpace=wrap;html=1;fontSize=12;glass=0;strokeWidth=1;shadow=0;labelBackgroundColor=none;fillColor=#B2C9AB;strokeColor=#788AA3;fontColor=#46495D;" vertex="1" parent="WIyWlLk6GJQsqaUBKTNV-1">
          <mxGeometry x="340" y="110" width="120" height="40" as="geometry" />
        </mxCell>
        <mxCell id="-5JDeVEjNkhx5ZQaPaJK-5" value="" style="edgeStyle=orthogonalEdgeStyle;rounded=0;orthogonalLoop=1;jettySize=auto;html=1;labelBackgroundColor=none;strokeColor=#788AA3;fontColor=default;" edge="1" parent="WIyWlLk6GJQsqaUBKTNV-1" source="-5JDeVEjNkhx5ZQaPaJK-2" target="-5JDeVEjNkhx5ZQaPaJK-4">
          <mxGeometry relative="1" as="geometry" />
        </mxCell>
        <mxCell id="-5JDeVEjNkhx5ZQaPaJK-2" value="Відштовхнутись другою ногою від поверхні" style="rounded=1;whiteSpace=wrap;html=1;fontSize=12;glass=0;strokeWidth=1;shadow=0;labelBackgroundColor=none;fillColor=#B2C9AB;strokeColor=#788AA3;fontColor=#46495D;" vertex="1" parent="WIyWlLk6GJQsqaUBKTNV-1">
          <mxGeometry x="340" y="190" width="120" height="60" as="geometry" />
        </mxCell>
        <mxCell id="-5JDeVEjNkhx5ZQaPaJK-7" value="" style="edgeStyle=orthogonalEdgeStyle;rounded=0;orthogonalLoop=1;jettySize=auto;html=1;labelBackgroundColor=none;strokeColor=#788AA3;fontColor=default;" edge="1" parent="WIyWlLk6GJQsqaUBKTNV-1" source="-5JDeVEjNkhx5ZQaPaJK-4" target="-5JDeVEjNkhx5ZQaPaJK-6">
          <mxGeometry relative="1" as="geometry" />
        </mxCell>
        <mxCell id="-5JDeVEjNkhx5ZQaPaJK-4" value="Стояти на скейті двома ногами" style="rounded=1;whiteSpace=wrap;html=1;fontSize=12;glass=0;strokeWidth=1;shadow=0;labelBackgroundColor=none;fillColor=#B2C9AB;strokeColor=#788AA3;fontColor=#46495D;" vertex="1" parent="WIyWlLk6GJQsqaUBKTNV-1">
          <mxGeometry x="340" y="290" width="120" height="60" as="geometry" />
        </mxCell>
        <mxCell id="-5JDeVEjNkhx5ZQaPaJK-9" value="Вліво" style="edgeStyle=orthogonalEdgeStyle;rounded=0;orthogonalLoop=1;jettySize=auto;html=1;labelBackgroundColor=none;strokeColor=#788AA3;fontColor=default;" edge="1" parent="WIyWlLk6GJQsqaUBKTNV-1" source="-5JDeVEjNkhx5ZQaPaJK-6" target="-5JDeVEjNkhx5ZQaPaJK-8">
          <mxGeometry x="-0.1111" y="-20" relative="1" as="geometry">
            <mxPoint as="offset" />
          </mxGeometry>
        </mxCell>
        <mxCell id="-5JDeVEjNkhx5ZQaPaJK-11" value="Вправо" style="edgeStyle=orthogonalEdgeStyle;rounded=0;orthogonalLoop=1;jettySize=auto;html=1;labelBackgroundColor=none;strokeColor=#788AA3;fontColor=default;" edge="1" parent="WIyWlLk6GJQsqaUBKTNV-1" source="-5JDeVEjNkhx5ZQaPaJK-6" target="-5JDeVEjNkhx5ZQaPaJK-10">
          <mxGeometry x="-0.1111" y="20" relative="1" as="geometry">
            <mxPoint as="offset" />
          </mxGeometry>
        </mxCell>
        <mxCell id="-5JDeVEjNkhx5ZQaPaJK-13" value="Стояти рівно" style="edgeStyle=orthogonalEdgeStyle;rounded=0;orthogonalLoop=1;jettySize=auto;html=1;labelBackgroundColor=none;strokeColor=#788AA3;fontColor=default;" edge="1" parent="WIyWlLk6GJQsqaUBKTNV-1" source="-5JDeVEjNkhx5ZQaPaJK-6" target="-5JDeVEjNkhx5ZQaPaJK-12">
          <mxGeometry x="-0.1111" y="40" relative="1" as="geometry">
            <mxPoint as="offset" />
          </mxGeometry>
        </mxCell>
        <mxCell id="-5JDeVEjNkhx5ZQaPaJK-6" value="Нахилитись&amp;nbsp;" style="rhombus;whiteSpace=wrap;html=1;rounded=1;glass=0;strokeWidth=1;shadow=0;labelBackgroundColor=none;fillColor=#B2C9AB;strokeColor=#788AA3;fontColor=#46495D;" vertex="1" parent="WIyWlLk6GJQsqaUBKTNV-1">
          <mxGeometry x="360" y="420" width="80" height="80" as="geometry" />
        </mxCell>
        <mxCell id="-5JDeVEjNkhx5ZQaPaJK-16" style="edgeStyle=orthogonalEdgeStyle;rounded=0;orthogonalLoop=1;jettySize=auto;html=1;exitX=0.5;exitY=1;exitDx=0;exitDy=0;entryX=0;entryY=0.5;entryDx=0;entryDy=0;strokeColor=#788AA3;fontColor=#46495D;fillColor=#B2C9AB;" edge="1" parent="WIyWlLk6GJQsqaUBKTNV-1" source="-5JDeVEjNkhx5ZQaPaJK-8" target="-5JDeVEjNkhx5ZQaPaJK-14">
          <mxGeometry relative="1" as="geometry" />
        </mxCell>
        <mxCell id="-5JDeVEjNkhx5ZQaPaJK-8" value="Скейт їде ліворуч" style="whiteSpace=wrap;html=1;rounded=1;glass=0;strokeWidth=1;shadow=0;labelBackgroundColor=none;fillColor=#B2C9AB;strokeColor=#788AA3;fontColor=#46495D;" vertex="1" parent="WIyWlLk6GJQsqaUBKTNV-1">
          <mxGeometry x="150" y="430" width="120" height="60" as="geometry" />
        </mxCell>
        <mxCell id="-5JDeVEjNkhx5ZQaPaJK-17" style="edgeStyle=orthogonalEdgeStyle;rounded=0;orthogonalLoop=1;jettySize=auto;html=1;exitX=0.5;exitY=1;exitDx=0;exitDy=0;entryX=1;entryY=0.5;entryDx=0;entryDy=0;strokeColor=#788AA3;fontColor=#46495D;fillColor=#B2C9AB;" edge="1" parent="WIyWlLk6GJQsqaUBKTNV-1" source="-5JDeVEjNkhx5ZQaPaJK-10" target="-5JDeVEjNkhx5ZQaPaJK-14">
          <mxGeometry relative="1" as="geometry" />
        </mxCell>
        <mxCell id="-5JDeVEjNkhx5ZQaPaJK-10" value="Скейт їде праворуч" style="whiteSpace=wrap;html=1;rounded=1;glass=0;strokeWidth=1;shadow=0;labelBackgroundColor=none;fillColor=#B2C9AB;strokeColor=#788AA3;fontColor=#46495D;" vertex="1" parent="WIyWlLk6GJQsqaUBKTNV-1">
          <mxGeometry x="530" y="430" width="120" height="60" as="geometry" />
        </mxCell>
        <mxCell id="-5JDeVEjNkhx5ZQaPaJK-15" value="" style="edgeStyle=orthogonalEdgeStyle;rounded=0;orthogonalLoop=1;jettySize=auto;html=1;strokeColor=#788AA3;fontColor=#46495D;fillColor=#B2C9AB;" edge="1" parent="WIyWlLk6GJQsqaUBKTNV-1" source="-5JDeVEjNkhx5ZQaPaJK-12" target="-5JDeVEjNkhx5ZQaPaJK-14">
          <mxGeometry relative="1" as="geometry" />
        </mxCell>
        <mxCell id="-5JDeVEjNkhx5ZQaPaJK-12" value="Скейт їде прямо" style="whiteSpace=wrap;html=1;rounded=1;glass=0;strokeWidth=1;shadow=0;labelBackgroundColor=none;fillColor=#B2C9AB;strokeColor=#788AA3;fontColor=#46495D;" vertex="1" parent="WIyWlLk6GJQsqaUBKTNV-1">
          <mxGeometry x="340" y="570" width="120" height="60" as="geometry" />
        </mxCell>
        <mxCell id="-5JDeVEjNkhx5ZQaPaJK-19" value="" style="edgeStyle=orthogonalEdgeStyle;rounded=0;orthogonalLoop=1;jettySize=auto;html=1;strokeColor=#788AA3;fontColor=#46495D;fillColor=#B2C9AB;" edge="1" parent="WIyWlLk6GJQsqaUBKTNV-1" source="-5JDeVEjNkhx5ZQaPaJK-14" target="-5JDeVEjNkhx5ZQaPaJK-18">
          <mxGeometry relative="1" as="geometry" />
        </mxCell>
        <mxCell id="-5JDeVEjNkhx5ZQaPaJK-14" value="Поставити одну ногу на поверхню" style="whiteSpace=wrap;html=1;rounded=1;glass=0;strokeWidth=1;shadow=0;labelBackgroundColor=none;fillColor=#B2C9AB;strokeColor=#788AA3;fontColor=#46495D;" vertex="1" parent="WIyWlLk6GJQsqaUBKTNV-1">
          <mxGeometry x="340" y="710" width="120" height="60" as="geometry" />
        </mxCell>
        <mxCell id="-5JDeVEjNkhx5ZQaPaJK-18" value="Скейт зупинився" style="whiteSpace=wrap;html=1;rounded=1;glass=0;strokeWidth=1;shadow=0;labelBackgroundColor=none;fillColor=#B2C9AB;strokeColor=#788AA3;fontColor=#46495D;" vertex="1" parent="WIyWlLk6GJQsqaUBKTNV-1">
          <mxGeometry x="340" y="850" width="120" height="60" as="geometry" />
        </mxCell>
      </root>
    </mxGraphModel>
  </diagram>
</mxfile>
